<svg xmlns="http://www.w3.org/2000/svg" width="800" height="500" viewBox="0 0 800 500">
  <defs>
    <linearGradient id="g" x1="0" y1="0" x2="1" y2="1">
      <stop offset="0%" stop-color="#0f172a"/>
      <stop offset="100%" stop-color="#1d4ed8"/>
    </linearGradient>
  </defs>
  <rect width="800" height="500" rx="24" fill="url(#g)" />
  <rect x="30" y="34" width="740" height="46" rx="16" fill="#111827" />
  <text x="50" y="66" fill="#fff" font-size="25" font-family="Plus Jakarta Sans, sans-serif" font-weight="700">⚽ Dashboard de Futebol - Métricas</text>
  <rect x="30" y="100" width="360" height="120" rx="12" fill="#1e293b" />
  <rect x="410" y="100" width="360" height="120" rx="12" fill="#1e293b" />
  <rect x="30" y="235" width="740" height="220" rx="12" fill="#0f172a" />
  <circle cx="120" cy="60" r="18" fill="#10b981" />
  <circle cx="160" cy="60" r="18" fill="#f59e0b" />
  <circle cx="200" cy="60" r="18" fill="#3b82f6" />
  <line x1="60" y1="260" x2="760" y2="260" stroke="#475569" stroke-width="2" />
  <line x1="60" y1="300" x2="760" y2="300" stroke="#475569" stroke-width="2" />
  <line x1="60" y1="340" x2="760" y2="340" stroke="#475569" stroke-width="2" />
  <circle cx="180" cy="320" r="20" fill="#3b82f6" />
  <circle cx="260" cy="295" r="20" fill="#ef4444" />
  <line x1="180" y1="320" x2="260" y2="295" stroke="#fff" stroke-width="3" />
</svg>